<mxfile host="65bd71144e" scale="1" border="25">
    <diagram id="dR72Ra2IELkBpNxJ6b9m" name="Page-1">
        <mxGraphModel dx="478" dy="406" grid="1" gridSize="10" guides="1" tooltips="1" connect="1" arrows="1" fold="1" page="1" pageScale="1" pageWidth="1100" pageHeight="850" background="#FFFFFF" math="0" shadow="0">
            <root>
                <mxCell id="0"/>
                <mxCell id="1" parent="0"/>
                <mxCell id="102" style="edgeStyle=none;html=1;fontSize=8;fillColor=#647687;strokeColor=#314354;" parent="1" edge="1">
                    <mxGeometry relative="1" as="geometry">
                        <mxPoint x="710" y="320" as="targetPoint"/>
                        <mxPoint x="670" y="390" as="sourcePoint"/>
                        <Array as="points">
                            <mxPoint x="670" y="320"/>
                        </Array>
                    </mxGeometry>
                </mxCell>
                <mxCell id="104" value="Api request" style="edgeLabel;html=1;align=center;verticalAlign=middle;resizable=0;points=[];fontSize=8;" parent="102" vertex="1" connectable="0">
                    <mxGeometry x="0.0563" y="-1" relative="1" as="geometry">
                        <mxPoint x="16" y="48" as="offset"/>
                    </mxGeometry>
                </mxCell>
                <mxCell id="16" value="Webklient&lt;br&gt;Remotely" style="sketch=0;pointerEvents=1;shadow=0;dashed=0;html=1;strokeColor=none;fillColor=#505050;labelPosition=center;verticalLabelPosition=bottom;verticalAlign=top;outlineConnect=0;align=center;shape=mxgraph.office.devices.cell_phone_android_proportional;" parent="1" vertex="1">
                    <mxGeometry x="640" y="400" width="40" height="70" as="geometry"/>
                </mxCell>
                <mxCell id="87" style="edgeStyle=none;html=1;fontSize=8;fontColor=#9999FF;strokeColor=#B09500;fillColor=#e3c800;" parent="1" edge="1">
                    <mxGeometry relative="1" as="geometry">
                        <mxPoint x="630" y="430" as="targetPoint"/>
                        <mxPoint x="540" y="369" as="sourcePoint"/>
                        <Array as="points">
                            <mxPoint x="540" y="430"/>
                        </Array>
                    </mxGeometry>
                </mxCell>
                <mxCell id="89" value="IoT Data" style="edgeLabel;html=1;align=center;verticalAlign=middle;resizable=0;points=[];fontSize=8;" parent="87" vertex="1" connectable="0">
                    <mxGeometry x="-0.2822" relative="1" as="geometry">
                        <mxPoint x="-11" y="-48" as="offset"/>
                    </mxGeometry>
                </mxCell>
                <mxCell id="90" style="edgeStyle=none;html=1;fontSize=8;fontColor=#9999FF;strokeColor=#B09500;fillColor=#e3c800;" parent="1" edge="1">
                    <mxGeometry relative="1" as="geometry">
                        <mxPoint x="370" y="510" as="targetPoint"/>
                        <mxPoint x="510" y="290" as="sourcePoint"/>
                        <Array as="points">
                            <mxPoint x="370" y="290"/>
                        </Array>
                    </mxGeometry>
                </mxCell>
                <mxCell id="92" value="Styring" style="edgeLabel;html=1;align=center;verticalAlign=middle;resizable=0;points=[];fontSize=8;" parent="90" vertex="1" connectable="0">
                    <mxGeometry x="-0.4379" y="-2" relative="1" as="geometry">
                        <mxPoint x="77" as="offset"/>
                    </mxGeometry>
                </mxCell>
                <mxCell id="13" value="CloudService&lt;br&gt;&lt;i&gt;IOT Handler&lt;/i&gt;" style="sketch=0;pointerEvents=1;shadow=0;dashed=0;html=1;strokeColor=none;fillColor=#e3c800;labelPosition=center;verticalLabelPosition=bottom;outlineConnect=0;verticalAlign=top;align=center;shape=mxgraph.office.clouds.cloud;fontColor=#000000;" parent="1" vertex="1">
                    <mxGeometry x="520" y="270" width="80" height="48.69" as="geometry"/>
                </mxCell>
                <mxCell id="70" style="edgeStyle=none;html=1;fillColor=#647687;strokeColor=#314354;" parent="1" edge="1">
                    <mxGeometry relative="1" as="geometry">
                        <mxPoint x="210" y="540" as="targetPoint"/>
                        <mxPoint x="310" y="540" as="sourcePoint"/>
                    </mxGeometry>
                </mxCell>
                <mxCell id="71" value="Kommunikation" style="edgeLabel;html=1;align=center;verticalAlign=middle;resizable=0;points=[];fontSize=8;" parent="70" vertex="1" connectable="0">
                    <mxGeometry x="-0.2057" y="-1" relative="1" as="geometry">
                        <mxPoint x="-10" y="10" as="offset"/>
                    </mxGeometry>
                </mxCell>
                <mxCell id="78" style="edgeStyle=none;html=1;fillColor=#647687;strokeColor=#314354;" parent="1" edge="1">
                    <mxGeometry relative="1" as="geometry">
                        <mxPoint x="470" y="570" as="targetPoint"/>
                        <mxPoint x="410" y="560" as="sourcePoint"/>
                        <Array as="points">
                            <mxPoint x="440" y="560"/>
                            <mxPoint x="440" y="570"/>
                        </Array>
                    </mxGeometry>
                </mxCell>
                <mxCell id="79" value="IoT Data" style="edgeLabel;html=1;align=center;verticalAlign=middle;resizable=0;points=[];fontSize=8;" parent="78" vertex="1" connectable="0">
                    <mxGeometry x="-0.3656" y="-1" relative="1" as="geometry">
                        <mxPoint x="-11" y="7" as="offset"/>
                    </mxGeometry>
                </mxCell>
                <mxCell id="80" style="edgeStyle=none;html=1;fillColor=#647687;strokeColor=#314354;" parent="1" edge="1">
                    <mxGeometry relative="1" as="geometry">
                        <mxPoint x="350" y="600" as="targetPoint"/>
                        <mxPoint x="330" y="580" as="sourcePoint"/>
                        <Array as="points">
                            <mxPoint x="330" y="600"/>
                        </Array>
                    </mxGeometry>
                </mxCell>
                <mxCell id="91" style="edgeStyle=none;html=1;fontSize=8;fontColor=#9999FF;strokeColor=#B09500;fillColor=#e3c800;" parent="1" edge="1">
                    <mxGeometry relative="1" as="geometry">
                        <mxPoint x="510" y="300" as="targetPoint"/>
                        <mxPoint x="380" y="510" as="sourcePoint"/>
                        <Array as="points">
                            <mxPoint x="380" y="300"/>
                        </Array>
                    </mxGeometry>
                </mxCell>
                <mxCell id="93" value="IoT Data" style="edgeLabel;html=1;align=center;verticalAlign=middle;resizable=0;points=[];fontSize=8;" parent="91" vertex="1" connectable="0">
                    <mxGeometry x="0.3819" relative="1" as="geometry">
                        <mxPoint x="-13" y="195" as="offset"/>
                    </mxGeometry>
                </mxCell>
                <mxCell id="107" style="edgeStyle=none;html=1;fontSize=8;fillColor=#e51400;strokeColor=#B20000;" parent="1" edge="1">
                    <mxGeometry relative="1" as="geometry">
                        <mxPoint x="290" y="370" as="targetPoint"/>
                        <mxPoint x="340" y="510" as="sourcePoint"/>
                        <Array as="points">
                            <mxPoint x="340" y="370"/>
                        </Array>
                    </mxGeometry>
                </mxCell>
                <mxCell id="109" value="Api request" style="edgeLabel;html=1;align=center;verticalAlign=middle;resizable=0;points=[];fontSize=8;" parent="107" vertex="1" connectable="0">
                    <mxGeometry x="0.459" y="3" relative="1" as="geometry">
                        <mxPoint x="-4" y="-3" as="offset"/>
                    </mxGeometry>
                </mxCell>
                <mxCell id="22" value="HUB" style="sketch=0;pointerEvents=1;shadow=0;dashed=0;html=1;strokeColor=none;fillColor=#505050;labelPosition=center;verticalLabelPosition=bottom;verticalAlign=top;outlineConnect=0;align=center;shape=mxgraph.office.devices.modem;" parent="1" vertex="1">
                    <mxGeometry x="320" y="520" width="80" height="50" as="geometry"/>
                </mxCell>
                <mxCell id="69" style="edgeStyle=none;html=1;fillColor=#647687;strokeColor=#314354;" parent="1" edge="1">
                    <mxGeometry relative="1" as="geometry">
                        <mxPoint x="310" y="560" as="targetPoint"/>
                        <mxPoint x="210" y="560" as="sourcePoint"/>
                    </mxGeometry>
                </mxCell>
                <mxCell id="18" value="IoT&lt;br&gt;Enhed" style="sketch=0;pointerEvents=1;shadow=0;dashed=0;html=1;strokeColor=none;fillColor=#505050;labelPosition=center;verticalLabelPosition=bottom;verticalAlign=top;outlineConnect=0;align=center;shape=mxgraph.office.devices.nic;" parent="1" vertex="1">
                    <mxGeometry x="140" y="529" width="57" height="40" as="geometry"/>
                </mxCell>
                <mxCell id="65" style="edgeStyle=none;html=1;fillColor=#647687;strokeColor=#314354;" parent="1" edge="1">
                    <mxGeometry relative="1" as="geometry">
                        <mxPoint x="470" y="560" as="sourcePoint"/>
                        <mxPoint x="410" y="550" as="targetPoint"/>
                        <Array as="points">
                            <mxPoint x="440" y="560"/>
                            <mxPoint x="440" y="550"/>
                        </Array>
                    </mxGeometry>
                </mxCell>
                <mxCell id="66" value="Styring" style="edgeLabel;html=1;align=center;verticalAlign=middle;resizable=0;points=[];fontSize=8;" parent="65" vertex="1" connectable="0">
                    <mxGeometry x="0.375" y="1" relative="1" as="geometry">
                        <mxPoint x="25" y="1" as="offset"/>
                    </mxGeometry>
                </mxCell>
                <mxCell id="86" style="edgeStyle=none;html=1;fontSize=8;fontColor=#9999FF;strokeColor=#B09500;fillColor=#e3c800;" parent="1" edge="1">
                    <mxGeometry relative="1" as="geometry">
                        <mxPoint x="550" y="359.5000000000001" as="targetPoint"/>
                        <mxPoint x="630" y="420" as="sourcePoint"/>
                        <Array as="points">
                            <mxPoint x="550" y="420"/>
                        </Array>
                    </mxGeometry>
                </mxCell>
                <mxCell id="88" value="Styring" style="edgeLabel;html=1;align=center;verticalAlign=middle;resizable=0;points=[];fontSize=8;" parent="86" vertex="1" connectable="0">
                    <mxGeometry x="-0.7349" relative="1" as="geometry">
                        <mxPoint x="-5" y="-1" as="offset"/>
                    </mxGeometry>
                </mxCell>
                <mxCell id="30" value="Webklient&lt;br&gt;Inhouse" style="sketch=0;pointerEvents=1;shadow=0;dashed=0;html=1;strokeColor=none;fillColor=#505050;labelPosition=center;verticalLabelPosition=bottom;verticalAlign=top;outlineConnect=0;align=center;shape=mxgraph.office.devices.cell_phone_generic;fontColor=#000000;" parent="1" vertex="1">
                    <mxGeometry x="480" y="529" width="40" height="67" as="geometry"/>
                </mxCell>
                <mxCell id="76" style="edgeStyle=none;html=1;fillColor=#647687;strokeColor=#314354;" parent="1" edge="1">
                    <mxGeometry relative="1" as="geometry">
                        <mxPoint x="530" y="560" as="targetPoint"/>
                        <mxPoint x="740" y="360" as="sourcePoint"/>
                        <Array as="points">
                            <mxPoint x="740" y="560"/>
                        </Array>
                    </mxGeometry>
                </mxCell>
                <mxCell id="97" value="Api data" style="edgeLabel;html=1;align=center;verticalAlign=middle;resizable=0;points=[];fontSize=8;" parent="76" vertex="1" connectable="0">
                    <mxGeometry x="-0.9069" y="-2" relative="1" as="geometry">
                        <mxPoint x="-8" y="-9" as="offset"/>
                    </mxGeometry>
                </mxCell>
                <mxCell id="103" style="edgeStyle=none;html=1;fontSize=8;fillColor=#647687;strokeColor=#314354;" parent="1" edge="1">
                    <mxGeometry relative="1" as="geometry">
                        <mxPoint x="660" y="390" as="targetPoint"/>
                        <mxPoint x="710" y="310" as="sourcePoint"/>
                        <Array as="points">
                            <mxPoint x="660" y="310"/>
                        </Array>
                    </mxGeometry>
                </mxCell>
                <mxCell id="105" value="Api data" style="edgeLabel;html=1;align=center;verticalAlign=middle;resizable=0;points=[];fontSize=8;" parent="103" vertex="1" connectable="0">
                    <mxGeometry x="-0.4769" y="1" relative="1" as="geometry">
                        <mxPoint x="14" y="-2" as="offset"/>
                    </mxGeometry>
                </mxCell>
                <mxCell id="112" style="edgeStyle=none;html=1;fontSize=8;fillColor=#647687;strokeColor=#314354;" parent="1" edge="1">
                    <mxGeometry relative="1" as="geometry">
                        <mxPoint x="830.5" y="300" as="targetPoint"/>
                        <mxPoint x="770.5" y="300" as="sourcePoint"/>
                    </mxGeometry>
                </mxCell>
                <mxCell id="115" value="&lt;i&gt;request&lt;/i&gt;" style="edgeLabel;html=1;align=center;verticalAlign=middle;resizable=0;points=[];fontSize=8;" parent="112" vertex="1" connectable="0">
                    <mxGeometry x="0.4532" y="-1" relative="1" as="geometry">
                        <mxPoint x="-14" y="-1" as="offset"/>
                    </mxGeometry>
                </mxCell>
                <mxCell id="62" value="API" style="sketch=0;pointerEvents=1;shadow=0;dashed=0;html=1;strokeColor=none;fillColor=#505050;labelPosition=center;verticalLabelPosition=bottom;verticalAlign=top;outlineConnect=0;align=center;shape=mxgraph.office.servers.web_server;" parent="1" vertex="1">
                    <mxGeometry x="720" y="280" width="50.5" height="57" as="geometry"/>
                </mxCell>
                <mxCell id="63" value="" style="group" parent="1" vertex="1" connectable="0">
                    <mxGeometry x="840" y="270" width="43" height="49.25" as="geometry"/>
                </mxCell>
                <mxCell id="19" value="Encrypted&lt;br&gt;DataStore" style="sketch=0;shadow=0;dashed=0;html=1;strokeColor=none;fillColor=#505050;labelPosition=center;verticalLabelPosition=bottom;verticalAlign=top;outlineConnect=0;align=center;shape=mxgraph.office.databases.database_mini_2;" parent="63" vertex="1">
                    <mxGeometry width="40" height="48.5" as="geometry"/>
                </mxCell>
                <mxCell id="47" value="" style="sketch=0;pointerEvents=1;shadow=0;dashed=0;html=1;strokeColor=none;labelPosition=center;verticalLabelPosition=bottom;verticalAlign=top;outlineConnect=0;align=center;shape=mxgraph.office.security.lock_protected;fillColor=#E3C500;labelBackgroundColor=none;fontColor=#000000;" parent="63" vertex="1">
                    <mxGeometry x="33" y="35.25" width="10" height="14" as="geometry"/>
                </mxCell>
                <mxCell id="72" style="edgeStyle=none;html=1;fillColor=#647687;strokeColor=#314354;" parent="1" edge="1">
                    <mxGeometry relative="1" as="geometry">
                        <mxPoint x="530" y="570" as="sourcePoint"/>
                        <mxPoint x="750" y="360" as="targetPoint"/>
                        <Array as="points">
                            <mxPoint x="750" y="570"/>
                        </Array>
                    </mxGeometry>
                </mxCell>
                <mxCell id="73" value="Api request" style="edgeLabel;html=1;align=center;verticalAlign=middle;resizable=0;points=[];fontSize=8;" parent="72" vertex="1" connectable="0">
                    <mxGeometry x="0.375" y="1" relative="1" as="geometry">
                        <mxPoint x="-189" y="75" as="offset"/>
                    </mxGeometry>
                </mxCell>
                <mxCell id="84" value="" style="sketch=0;shadow=0;dashed=0;html=1;strokeColor=none;fillColor=#505050;labelPosition=center;verticalLabelPosition=bottom;verticalAlign=top;outlineConnect=0;align=center;shape=mxgraph.office.databases.database_mini_2;" parent="1" vertex="1">
                    <mxGeometry x="352.92" y="596" width="14.16" height="17" as="geometry"/>
                </mxCell>
                <mxCell id="94" style="edgeStyle=none;html=1;fillColor=#647687;strokeColor=#314354;" parent="1" edge="1">
                    <mxGeometry relative="1" as="geometry">
                        <mxPoint x="390" y="580" as="targetPoint"/>
                        <mxPoint x="370" y="600" as="sourcePoint"/>
                        <Array as="points">
                            <mxPoint x="390" y="600"/>
                        </Array>
                    </mxGeometry>
                </mxCell>
                <mxCell id="96" value="IoT Enhed&lt;br&gt;DataStore" style="text;html=1;align=center;verticalAlign=middle;resizable=0;points=[];autosize=1;strokeColor=none;fillColor=none;fontSize=8;" parent="1" vertex="1">
                    <mxGeometry x="335" y="613" width="50" height="30" as="geometry"/>
                </mxCell>
                <mxCell id="108" style="edgeStyle=none;html=1;fontSize=8;fillColor=#e51400;strokeColor=#B20000;" parent="1" edge="1">
                    <mxGeometry relative="1" as="geometry">
                        <mxPoint x="330" y="510" as="targetPoint"/>
                        <mxPoint x="290" y="380" as="sourcePoint"/>
                        <Array as="points">
                            <mxPoint x="330" y="380"/>
                        </Array>
                    </mxGeometry>
                </mxCell>
                <mxCell id="110" value="&lt;i&gt;response&lt;/i&gt;" style="edgeLabel;html=1;align=center;verticalAlign=middle;resizable=0;points=[];fontSize=8;" parent="108" vertex="1" connectable="0">
                    <mxGeometry x="-0.8328" y="1" relative="1" as="geometry">
                        <mxPoint x="5" y="1" as="offset"/>
                    </mxGeometry>
                </mxCell>
                <mxCell id="106" value="&lt;font color=&quot;#000000&quot;&gt;Extern&lt;br&gt;IoT Enhed&lt;/font&gt;" style="sketch=0;pointerEvents=1;shadow=0;dashed=0;html=1;strokeColor=none;fillColor=#e51400;labelPosition=center;verticalLabelPosition=bottom;verticalAlign=top;outlineConnect=0;align=center;shape=mxgraph.office.concepts.help;fontFamily=Helvetica;fontSize=8;fontColor=#ffffff;" parent="1" vertex="1">
                    <mxGeometry x="240" y="352.33" width="40" height="38.67" as="geometry"/>
                </mxCell>
                <mxCell id="113" style="edgeStyle=none;html=1;fontSize=8;fillColor=#647687;strokeColor=#314354;" parent="1" edge="1">
                    <mxGeometry relative="1" as="geometry">
                        <mxPoint x="770" y="290" as="targetPoint"/>
                        <mxPoint x="830" y="290" as="sourcePoint"/>
                    </mxGeometry>
                </mxCell>
                <mxCell id="114" value="&lt;i&gt;response&lt;/i&gt;" style="edgeLabel;html=1;align=center;verticalAlign=middle;resizable=0;points=[];fontSize=8;" parent="113" vertex="1" connectable="0">
                    <mxGeometry x="-0.2794" y="-1" relative="1" as="geometry">
                        <mxPoint as="offset"/>
                    </mxGeometry>
                </mxCell>
            </root>
        </mxGraphModel>
    </diagram>
</mxfile>